<?xml version="1.0" standalone="no"?>
<!DOCTYPE svg PUBLIC "-//W3C//DTD SVG 20010904//EN"
 "http://www.w3.org/TR/2001/REC-SVG-20010904/DTD/svg10.dtd">
<svg version="1.0" xmlns="http://www.w3.org/2000/svg"
 width="328.000000pt" height="328.000000pt" viewBox="0 0 328.000000 328.000000"
 preserveAspectRatio="xMidYMid meet">
<metadata>
Created by potrace 1.11, written by Peter Selinger 2001-2013
</metadata>
<g transform="translate(0.000000,328.000000) scale(0.100000,-0.100000)"
fill="#000000" stroke="none">
<path d="M1358 3115 c-2 -2 -28 -6 -59 -9 -31 -4 -67 -9 -80 -11 -40 -7 -123
-26 -139 -31 -8 -3 -17 -6 -20 -6 -14 -2 -142 -48 -152 -55 -7 -4 -17 -8 -23
-9 -29 -6 -124 -62 -118 -69 5 -4 3 -5 -3 -2 -7 4 -23 -2 -37 -13 -14 -11 -28
-20 -32 -20 -8 0 -79 -54 -106 -79 -9 -9 -28 -24 -43 -35 -14 -10 -23 -23 -20
-28 3 -4 0 -7 -8 -6 -7 2 -12 -3 -11 -9 2 -7 -3 -12 -10 -10 -6 1 -11 -4 -9
-11 1 -8 -2 -11 -7 -8 -5 3 -21 -11 -37 -32 -15 -20 -30 -39 -34 -42 -15 -14
-60 -80 -60 -89 0 -6 -4 -11 -8 -11 -4 0 -26 -35 -47 -77 -22 -43 -44 -81 -48
-84 -4 -3 -7 -10 -6 -15 2 -5 -7 -30 -19 -56 -12 -26 -24 -55 -25 -65 -2 -10
-7 -25 -10 -33 -18 -45 -57 -163 -61 -183 -3 -12 -7 -33 -10 -47 -29 -130 -26
-335 4 -416 5 -13 7 -24 4 -24 -4 0 -1 -7 6 -15 7 -8 10 -15 6 -15 -7 0 58
-133 77 -157 25 -33 139 -147 131 -133 -4 8 4 4 18 -10 28 -27 128 -84 128
-73 0 3 9 -2 20 -12 11 -10 20 -14 20 -9 0 5 4 4 8 -2 6 -9 122 -49 171 -59
12 -2 25 -6 29 -9 42 -26 356 -27 470 -1 12 3 32 7 45 10 53 11 163 49 169 59
4 6 8 8 8 4 0 -4 19 2 43 12 24 11 59 20 78 21 19 2 42 7 52 11 17 9 18 6 12
-29 -4 -21 -8 -47 -9 -58 -2 -11 -6 -31 -9 -45 -4 -14 -9 -41 -12 -60 -2 -19
-7 -45 -9 -56 -2 -12 -7 -37 -10 -55 -6 -37 -9 -51 -27 -149 -6 -36 -13 -72
-14 -80 -1 -8 -5 -29 -9 -45 -3 -17 -8 -46 -10 -66 -2 -19 -6 -44 -9 -55 -4
-10 -9 -37 -12 -59 -18 -125 -19 -121 8 -146 13 -13 31 -26 38 -28 23 -6 747
-4 835 3 45 3 93 10 108 15 14 6 26 9 26 6 0 -6 63 17 79 29 7 5 20 11 28 12
8 1 21 11 29 21 7 10 14 14 14 9 0 -5 8 -2 18 6 9 9 34 21 55 28 20 6 37 16
37 21 0 6 5 7 10 4 6 -3 14 5 20 19 5 14 12 26 15 26 4 0 3 -6 0 -12 -4 -7 5
1 19 17 14 17 26 32 26 35 0 3 14 14 30 24 17 9 27 22 24 28 -4 6 -3 8 3 5 12
-8 95 82 87 95 -3 4 0 8 5 8 12 0 69 108 102 192 25 64 32 229 11 259 -7 10
-10 19 -7 19 10 0 -34 60 -73 102 -19 20 -40 34 -45 31 -6 -3 -7 -2 -4 4 3 5
-12 23 -33 39 -22 16 -40 33 -40 37 0 5 -6 5 -12 1 -7 -4 -10 -4 -6 1 4 4 -4
21 -18 38 -27 32 -21 47 19 47 35 0 250 229 262 280 1 3 7 18 13 33 7 16 10
32 7 37 -3 5 -1 11 5 15 15 9 5 196 -11 226 -7 13 -12 30 -11 37 2 6 -2 12 -8
12 -6 0 -9 4 -6 9 16 24 -148 164 -168 144 -3 -4 -6 0 -6 7 0 7 -3 10 -7 7 -3
-4 -11 -3 -17 2 -11 10 -22 12 -96 25 -88 15 -147 18 -488 21 -362 3 -446 0
-436 -16 8 -13 -9 -11 -31 5 -27 18 -31 18 -250 21 -104 2 -235 6 -290 10
-101 7 -185 -5 -185 -26 0 -6 -4 -8 -9 -5 -5 3 -27 -15 -50 -40 -23 -25 -41
-43 -41 -39 0 11 -37 -38 -38 -49 0 -5 -5 -12 -11 -16 -17 -10 -23 -46 -26
-139 -3 -130 12 -147 120 -141 116 6 180 2 210 -14 17 -9 26 -16 22 -16 -4 0
-4 -7 1 -17 6 -10 5 -36 -4 -72 -7 -31 -15 -81 -19 -111 -3 -30 -7 -56 -9 -57
-1 -1 -31 -10 -67 -19 -132 -35 -315 -14 -400 47 -14 10 -30 15 -34 11 -5 -4
-6 -2 -4 3 6 12 -68 85 -77 76 -3 -3 -4 -1 -3 4 2 6 -10 34 -25 64 -15 29 -29
61 -31 70 -2 9 -8 35 -13 59 -35 151 36 460 134 582 29 36 149 157 139 140 -7
-12 -5 -12 11 1 31 26 111 70 136 74 13 3 34 7 48 10 57 11 140 18 220 19 97
0 159 -7 262 -30 15 -3 29 -4 31 -2 2 2 10 -2 18 -8 15 -12 68 -29 82 -26 4 1
7 -3 7 -9 0 -5 4 -8 9 -4 5 3 12 1 15 -3 8 -14 71 -8 68 6 -1 7 3 12 9 12 5 0
7 4 4 10 -3 5 15 31 40 57 25 27 48 59 52 73 3 14 8 30 12 35 19 34 14 213 -9
254 -12 24 -58 47 -106 55 -48 7 -107 17 -144 22 -37 6 -337 13 -342 9z m1112
-1289 c8 -2 26 -8 40 -13 14 -6 28 -9 31 -7 4 2 9 -3 13 -11 3 -8 13 -15 21
-15 9 0 13 -4 10 -10 -3 -5 -1 -10 5 -10 6 0 9 -4 6 -9 -4 -5 -2 -11 4 -13 6
-2 13 -14 16 -28 8 -39 11 -129 4 -125 -3 2 -14 -11 -23 -28 -33 -61 -139
-107 -237 -102 -71 3 -130 31 -149 71 -13 25 -12 39 3 109 9 44 19 91 20 105
2 14 9 42 16 62 l13 35 96 -4 c53 -2 103 -5 111 -7z m-160 -781 c48 -4 75 -10
139 -26 28 -7 70 -52 85 -90 9 -22 18 -71 21 -110 6 -76 4 -78 -79 -147 -21
-17 -93 -48 -136 -58 -89 -20 -220 9 -254 57 -7 10 -15 17 -18 14 -2 -3 -5 1
-6 7 -1 7 -4 33 -7 58 -4 29 0 65 10 100 9 30 17 63 18 73 1 9 4 17 8 17 4 0
9 10 13 23 3 13 12 39 20 59 l15 35 58 -3 c32 -2 83 -6 113 -9z"/>
</g>
</svg>
